<svg xmlns="http://www.w3.org/2000/svg" viewBox="0 0 176 225.41"><defs><style>.cls-1{fill:#0069ff;}</style></defs><title>CX-BLUE</title><g id="Layer_2" data-name="Layer 2"><g id="Layer_1-2" data-name="Layer 1"><path class="cls-1" d="M64.13,0H44.42c-10.27.56-18.88,3.33-25,8.05A40.72,40.72,0,0,0,5.83,25.54,58.61,58.61,0,0,0,0,50H0V175.44H0a61.21,61.21,0,0,0,5.83,25h0a42.52,42.52,0,0,0,13.32,16.93h0c6.94,5.27,16.1,8.05,27.48,8.05h56.63l.83-2.78,15.82-55.52,16.38,58.3H176l-36.37-118L175.72,0h-40L119.92,50.8,103.82,0ZM47.19,38.31H76.9l17.77,53.3,16.1-21.93L75.23,187.38l-28-.28a5.71,5.71,0,0,1-5.27-2.78A19.16,19.16,0,0,1,40,175.44V50c0-3.05.56-6.38,1.67-8.33,1.11-2.22,2.5-3.33,5.55-3.33Z"/></g></g></svg>